Coordinates
version=1
nRows=19
nColumns=36
inDegrees=yes

Units are S.I. units (second, meters, Newtons, ...)
If the header above contains a line with 'inDegrees', this indicates whether rotational values are in degrees (yes) or radians (no).

endheader
time	pelvis_tilt	pelvis_list	pelvis_rotation	pelvis_tx	pelvis_ty	pelvis_tz	hip_flexion_r	hip_adduction_r	hip_rotation_r	knee_angle_r	knee_angle_r_beta	ankle_angle_r	subtalar_angle_r	mtp_angle_r	hip_flexion_l	hip_adduction_l	hip_rotation_l	knee_angle_l	knee_angle_l_beta	ankle_angle_l	subtalar_angle_l	mtp_angle_l	lumbar_extension	lumbar_bending	lumbar_rotation	arm_flex_r	arm_add_r	arm_rot_r	elbow_flex_r	pro_sup_r	arm_flex_l	arm_add_l	arm_rot_l	elbow_flex_l	pro_sup_l
      1.00000000	    -11.01935661	      2.60744566	      0.86208968	     -0.74519926	      1.34592586	     -0.56825021	     26.85188352	      0.71104776	      5.05773033	     48.07995036	      0.83915344	    -12.54801417	    -17.49736818	     -4.94908756	     23.86508918	     -1.69973978	     -3.32456318	     62.06889659	      1.08330661	    -21.53255813	    -21.04490686	     -4.94908756	     -7.44221247	     -2.30799682	     -2.48513236	     64.15883965	    -28.79630147	     28.24868267	     90.75430950	    106.20941249	     74.45892499	    -20.59337178	     26.71020500	     78.41142071	    109.15637355
      1.01000000	    -10.86313403	      2.93295339	      1.55815868	     -0.73700604	      1.34898722	     -0.56852043	     27.04543884	     -0.13167196	      4.73966964	     45.71066847	      0.79780167	    -12.56724449	    -17.45690496	     -4.97696186	     26.22773691	     -1.40331176	     -2.86454527	     65.74884796	      1.14753388	    -20.71682256	    -21.87141931	     -4.97696186	     -8.24170833	     -2.65146689	     -2.87690125	     63.56992149	    -29.98883758	     27.94413976	     89.68140851	    106.24629609	     74.47739506	    -21.43262533	     26.93585496	     77.73182420	    109.32415959
      1.02000000	    -10.72753713	      3.22619577	      2.20227235	     -0.72893272	      1.35094318	     -0.56889107	     27.13546959	     -0.95262693	      4.45504892	     43.03403337	      0.75108557	    -13.20367038	    -17.82963652	     -5.01521948	     28.61912581	     -1.09274267	     -2.43565793	     69.07502715	      1.20558665	    -19.88803945	    -22.59695180	     -5.01521948	     -9.05405078	     -2.88986733	     -3.12430371	     63.07241580	    -31.23317868	     27.69298648	     88.52989663	    106.33591302	     74.50894596	    -22.50002191	     27.67231458	     77.10855673	    109.51186737
      1.03000000	    -10.47925649	      3.86551870	      2.66829227	     -0.72079467	      1.35217718	     -0.56935120	     27.10324384	     -2.14161021	      4.36117632	     40.35059919	      0.70425081	    -13.68925429	    -17.82300848	     -5.02859262	     30.66945740	     -0.33555867	     -2.21782987	     71.67741531	      1.25100690	    -19.40728063	    -23.08621093	     -5.02859262	    -10.11384284	     -3.50260204	     -3.18745656	     62.66711603	    -32.60077350	     27.47936654	     87.42094394	    106.31658397	     74.51819840	    -23.50289920	     28.00982618	     76.97692147	    109.55664594
      1.04000000	    -10.17911461	      3.81723236	      3.38141965	     -0.71257090	      1.35234312	     -0.57019484	     26.88437608	     -2.75837144	      3.55010084	     37.37269374	      0.65227656	    -16.69358675	    -19.23583250	     -5.11365674	     32.78720032	     -0.14134294	     -1.47807340	     74.10982247	      1.29346041	    -18.00106254	    -22.78688681	     -5.11365674	    -11.12317527	     -3.17118527	     -3.44422433	     62.67129594	    -33.95767226	     27.83638101	     85.81511323	    106.49378863	     74.77207607	    -25.08863440	     29.69707355	     76.47980498	    109.65054449
      1.05000000	     -9.89755596	      4.10771742	      3.94645993	     -0.70423122	      1.35152021	     -0.57133956	     26.78027167	     -3.77524696	      2.92574375	     34.76312613	      0.60673101	    -18.35474761	    -18.67264975	     -5.15486929	     34.67516758	      0.47576608	     -1.02220296	     75.73943971	      1.32190260	    -17.23961921	    -22.69292970	     -5.15486929	    -12.18447138	     -3.14878060	     -3.53335414	     62.62313813	    -35.38794562	     27.92769181	     84.50851522	    106.45288984	     74.76173886	    -26.33448265	     30.35484684	     76.36359377	    109.67970402
      1.06000000	     -9.53727212	      4.31384821	      4.40611202	     -0.69570265	      1.34985601	     -0.57242907	     26.41560295	     -4.59990087	      2.44082224	     31.90396604	      0.55682925	    -20.66889721	    -18.82964842	     -5.23149102	     36.27486481	      0.95586145	     -0.63256988	     76.68213364	      1.33835571	    -15.93988740	    -21.75327883	     -5.23149102	    -13.29204717	     -2.94952219	     -3.63402403	     63.04591155	    -36.75189839	     28.75926408	     82.77195220	    106.35570982	     74.89684457	    -28.15783790	     31.83483714	     76.50412827	    109.72715525
      1.07000000	     -9.24899504	      4.54929973	      4.79844294	     -0.68698930	      1.34713190	     -0.57379324	     26.11538120	     -5.46625149	      1.87501695	     29.10224446	      0.50792999	    -22.91350254	    -18.46092431	     -5.31480660	     37.69654175	      1.57613526	     -0.28913147	     76.87533386	      1.34172769	    -14.83011701	    -20.91669123	     -5.31480660	    -14.25254382	     -2.70808815	     -3.63743897	     63.59113204	    -38.14420549	     29.68272572	     81.05308973	    106.15713202	     74.84669573	    -30.04086772	     33.20065026	     76.85804300	    109.61974458
      1.08000000	     -9.00252633	      4.81838043	      5.06569425	     -0.67799414	      1.34344085	     -0.57508711	     25.91716381	     -6.32399095	      1.22374392	     26.45237142	      0.46168098	    -25.28740846	    -17.86818746	     -5.42162922	     38.82184572	      2.25965532	     -0.01642178	     76.20795703	      1.33007977	    -13.88570215	    -20.00374031	     -5.42162922	    -15.07203752	     -2.45924035	     -3.51543435	     64.39052049	    -39.51022036	     31.00740991	     79.18447320	    105.95363272	     74.72982000	    -32.07890821	     34.61328335	     77.27501956	    109.45525796
      1.09000000	     -8.73633415	      5.15027986	      5.18816197	     -0.66873370	      1.33896973	     -0.57591157	     25.69333013	     -7.15907188	      0.52973718	     23.85551536	      0.41635729	    -27.31936917	    -16.56476704	     -5.46429355	     39.58559360	      2.89419398	      0.10227202	     74.68714944	      1.30353667	    -13.56770791	    -19.35837703	     -5.46429355	    -15.88926213	     -2.40014070	     -3.05398255	     64.83456161	    -41.11232192	     31.81456619	     77.72189261	    105.82017560	     74.83693059	    -33.82146890	     36.04786270	     77.53254727	    109.44414399
      1.10000000	     -8.44485872	      5.51252601	      5.16189710	     -0.65920664	      1.33371365	     -0.57623051	     25.40702217	     -7.84287610	      0.19878224	     21.30749032	      0.37188586	    -29.59370723	    -16.03656912	     -5.55330570	     39.97764046	      3.42604150	      0.14290688	     72.43200281	      1.26417693	    -12.98047878	    -18.14112421	     -5.55330570	    -16.63294999	     -2.39510548	     -2.65893658	     65.90865506	    -42.54879215	     33.78268789	     75.75089025	    105.69299351	     75.10860229	    -36.13260857	     38.23678107	     77.97881271	    109.45613321
      1.11000000	     -8.26570258	      5.94814851	      4.95921987	     -0.64931808	      1.32763649	     -0.57624357	     25.32988141	     -8.53598646	      0.07028667	     19.01666716	      0.33190345	    -31.23478834	    -14.57371334	     -5.58944391	     40.10294201	      3.88040190	     -0.08182370	     69.38579543	      1.21101058	    -12.94875992	    -17.20830853	     -5.58944391	    -17.22150689	     -2.56240072	     -1.83829785	     66.40689251	    -44.30345102	     34.95348720	     74.48099634	    105.59252866	     75.23666462	    -37.98107939	     39.85692339	     78.37390458	    109.53650408
      1.12000000	     -8.00139712	      6.31477478	      4.62364601	     -0.63928341	      1.32067122	     -0.57608319	     25.22800941	     -9.07953827	      0.11544518	     16.98690385	      0.29647740	    -32.36785828	    -13.25716339	     -5.65794268	     39.86170358	      4.19448414	     -0.35615684	     65.81808970	      1.14874237	    -12.90354186	    -16.09167305	     -5.65794268	    -17.83555923	     -2.67127173	     -0.96907885	     67.62080050	    -46.19268682	     37.48557695	     73.05773981	    105.46224892	     75.91556460	    -40.28237305	     42.55551211	     78.77775709	    109.69253072
      1.13000000	     -7.96196418	      6.79158118	      4.16407568	     -0.62879675	      1.31257413	     -0.57579852	     25.39221462	     -9.68209060	      0.36579009	     15.10111834	      0.26356424	    -33.38653352	    -11.75747261	     -5.68312074	     39.56681326	      4.50105558	     -0.90493632	     61.73087872	      1.07740708	    -13.49349779	    -14.97149029	     -5.68312074	    -18.14475459	     -2.93268254	      0.18313790	     68.18151591	    -48.23502590	     38.69686552	     72.33529039	    105.40022951	     76.06893148	    -42.18778813	     43.91356234	     79.39601382	    109.78365690
      1.14000000	     -7.59675809	      7.13529306	      3.62618025	     -0.61811336	      1.30379701	     -0.57520216	     25.21411764	    -10.07991104	      0.44661869	     13.43534807	      0.23449106	    -33.90417896	    -10.15305198	     -5.76077615	     38.72719259	      4.60863748	     -1.44484117	     57.36326901	      1.00117791	    -14.37084900	    -14.08829599	     -5.76077615	    -18.82779923	     -3.03181486	      1.14269988	     70.13644670	    -50.38727013	     42.24260462	     71.58199285	    105.32116627	     77.36170479	    -45.03787949	     47.25781541	     80.18735398	    109.88064188
      1.15000000	     -7.37789686	      7.47360491	      3.04640686	     -0.60710610	      1.29379126	     -0.57471066	     25.26068511	    -10.47245818	      0.55244493	     12.00403058	      0.20950986	    -34.58931443	     -8.60518979	     -5.95117523	     37.88071062	      4.69332372	     -2.12605670	     52.77657439	      0.92112499	    -15.63163345	    -13.02701276	     -5.95117523	    -19.27198238	     -3.04446894	      1.82977165	     72.52375124	    -51.96201970	     45.96300097	     70.80612788	    104.73609644	     77.81833701	    -48.25741172	     48.94990952	     81.66552819	    109.43430209
      1.16000000	     -7.24625223	      7.78501791	      2.47011527	     -0.59579011	      1.28258042	     -0.57414078	     25.38344853	    -10.79502660	      0.78636215	     10.63545367	      0.18562368	    -36.03470411	     -7.75152979	     -5.93449794	     37.02131796	      4.74667651	     -2.87846803	     48.09773838	      0.83946390	    -17.25252177	    -11.81114140	     -5.93449794	    -19.54504761	     -3.19319359	      3.03761328	     73.53961162	    -54.15040428	     47.33283197	     70.91740728	    105.46779687	     78.50253093	    -50.50951617	     50.18183720	     82.56783192	    110.34162449
      1.17000000	     -6.96751210	      8.01524712	      1.83085281	     -0.58458645	      1.27016858	     -0.57364192	     25.54332184	    -11.04883762	      0.81038347	      9.77801098	      0.17065849	    -36.36321937	     -6.42440004	     -5.97107771	     36.01212541	      4.72525815	     -3.66616101	     43.54014564	      0.75991890	    -18.93059672	    -10.72442896	     -5.97107771	    -20.00968461	     -3.14812075	      4.17414394	     76.81355460	    -56.52940799	     52.19561998	     70.97806857	    105.90183651	     80.53742477	    -53.46349639	     53.65640770	     83.63586651	    110.61827888
      1.18000000	     -6.76672863	      8.12080416	      1.24089079	     -0.57330237	      1.25657398	     -0.57305863	     25.73489325	    -11.14326899	      0.91203467	      8.91817315	      0.15565148	    -37.35882518	     -5.81000866	     -6.18100272	     35.03993830	      4.62270409	     -4.37179967	     38.97819944	      0.68029792	    -20.90817679	     -9.47246709	     -6.18100272	    -20.31598158	     -2.89854837	      4.45268408	     80.99052515	    -57.26521017	     57.86980687	     70.25635899	    104.17268147	     81.48671447	    -57.45838434	     54.97240723	     85.61780840	    108.93657540
